<svg xmlns="http://www.w3.org/2000/svg" xmlns:xlink="http://www.w3.org/1999/xlink" width="500" zoomAndPan="magnify" viewBox="0 0 375 374.999991" height="500" preserveAspectRatio="xMidYMid meet" version="1.2"><defs><clipPath id="4170eff2f1"><path d="M 60 33.851562 L 81 33.851562 L 81 55 L 60 55 Z M 60 33.851562 "/></clipPath><clipPath id="147f0a3e80"><path d="M 53.25 60 L 86.929688 60 L 86.929688 133.289062 L 53.25 133.289062 Z M 53.25 60 "/></clipPath><clipPath id="bcf03ce79b"><rect x="0" width="305" y="0" height="176"/></clipPath></defs><g id="16a6ad7154"><g transform="matrix(1,0,0,1,46,71)"><g clip-path="url(#bcf03ce79b)"><g style="fill:#000000;fill-opacity:1;"><g transform="translate(1.773137, 130.197844)"><path style="stroke:none" d="M 46.890625 -18.234375 L 46.890625 0 L 35.953125 0 C 28.160156 0 22.082031 -1.90625 17.71875 -5.71875 C 13.363281 -9.53125 11.1875 -15.753906 11.1875 -24.390625 L 11.1875 -52.296875 L 2.640625 -52.296875 L 2.640625 -70.15625 L 11.1875 -70.15625 L 11.1875 -87.25 L 32.6875 -87.25 L 32.6875 -70.15625 L 46.765625 -70.15625 L 46.765625 -52.296875 L 32.6875 -52.296875 L 32.6875 -24.140625 C 32.6875 -22.046875 33.1875 -20.535156 34.1875 -19.609375 C 35.195312 -18.691406 36.875 -18.234375 39.21875 -18.234375 Z M 46.890625 -18.234375 "/></g></g><g style="fill:#000000;fill-opacity:1;"><g transform="translate(45.027026, 130.197844)"><path style="stroke:none" d=""/></g></g><g style="fill:#000000;fill-opacity:1;"><g transform="translate(45.027026, 130.197844)"><path style="stroke:none" d=""/></g></g><g style="fill:#000000;fill-opacity:1;"><g transform="translate(63.880487, 130.197844)"><path style="stroke:none" d=""/></g></g><g style="fill:#000000;fill-opacity:1;"><g transform="translate(82.742612, 130.197844)"><path style="stroke:none" d=""/></g></g><g style="fill:#000000;fill-opacity:1;"><g transform="translate(82.742612, 130.197844)"><path style="stroke:none" d="M 50.671875 0 L 29.296875 -29.421875 L 29.296875 0 L 7.796875 0 L 7.796875 -93.03125 L 29.296875 -93.03125 L 29.296875 -41.609375 L 50.53125 -70.15625 L 77.0625 -70.15625 L 47.90625 -34.953125 L 77.3125 0 Z M 50.671875 0 "/></g></g><g style="fill:#000000;fill-opacity:1;"><g transform="translate(152.631102, 130.197844)"><path style="stroke:none" d="M 39.34375 -20.109375 L 54.5625 -70.15625 L 77.4375 -70.15625 L 52.546875 0 L 26.03125 0 L 1.125 -70.15625 L 24.140625 -70.15625 Z M 39.34375 -20.109375 "/></g></g><g style="fill:#000000;fill-opacity:1;"><g transform="translate(223.52523, 130.197844)"><path style="stroke:none" d="M 3.515625 -35.203125 C 3.515625 -42.410156 4.875 -48.738281 7.59375 -54.1875 C 10.320312 -59.632812 14.03125 -63.820312 18.71875 -66.75 C 23.414062 -69.6875 28.660156 -71.15625 34.453125 -71.15625 C 39.390625 -71.15625 43.722656 -70.148438 47.453125 -68.140625 C 51.179688 -66.128906 54.054688 -63.488281 56.078125 -60.21875 L 56.078125 -70.15625 L 77.5625 -70.15625 L 77.5625 0 L 56.078125 0 L 56.078125 -9.9375 C 53.972656 -6.664062 51.054688 -4.023438 47.328125 -2.015625 C 43.597656 -0.00390625 39.265625 1 34.328125 1 C 28.617188 1 23.414062 -0.484375 18.71875 -3.453125 C 14.03125 -6.429688 10.320312 -10.664062 7.59375 -16.15625 C 4.875 -21.644531 3.515625 -27.992188 3.515625 -35.203125 Z M 56.078125 -35.078125 C 56.078125 -40.441406 54.585938 -44.671875 51.609375 -47.765625 C 48.628906 -50.867188 45.003906 -52.421875 40.734375 -52.421875 C 36.460938 -52.421875 32.835938 -50.890625 29.859375 -47.828125 C 26.878906 -44.773438 25.390625 -40.566406 25.390625 -35.203125 C 25.390625 -29.835938 26.878906 -25.582031 29.859375 -22.4375 C 32.835938 -19.289062 36.460938 -17.71875 40.734375 -17.71875 C 45.003906 -17.71875 48.628906 -19.269531 51.609375 -22.375 C 54.585938 -25.476562 56.078125 -29.710938 56.078125 -35.078125 Z M 56.078125 -35.078125 "/></g></g><g style="fill:#000000;fill-opacity:1;"><g transform="translate(301.092056, 130.197844)"><path style="stroke:none" d=""/></g></g><g clip-rule="nonzero" clip-path="url(#4170eff2f1)"><path style=" stroke:none;fill-rule:nonzero;fill:#ff66c4;fill-opacity:1;" d="M 70.230469 54.253906 C 70.902344 54.253906 71.566406 54.1875 72.222656 54.058594 C 72.878906 53.925781 73.515625 53.734375 74.136719 53.476562 C 74.753906 53.21875 75.34375 52.90625 75.898438 52.535156 C 76.457031 52.160156 76.972656 51.738281 77.445312 51.265625 C 77.917969 50.792969 78.339844 50.277344 78.714844 49.71875 C 79.085938 49.164062 79.398438 48.574219 79.65625 47.957031 C 79.914062 47.335938 80.105469 46.699219 80.234375 46.042969 C 80.367188 45.386719 80.433594 44.722656 80.433594 44.050781 C 80.433594 43.382812 80.367188 42.71875 80.234375 42.0625 C 80.105469 41.40625 79.910156 40.765625 79.65625 40.148438 C 79.398438 39.53125 79.085938 38.941406 78.714844 38.386719 C 78.339844 37.828125 77.917969 37.3125 77.445312 36.839844 C 76.972656 36.367188 76.457031 35.941406 75.898438 35.570312 C 75.339844 35.199219 74.753906 34.882812 74.136719 34.628906 C 73.515625 34.371094 72.878906 34.179688 72.222656 34.046875 C 71.566406 33.917969 70.902344 33.851562 70.230469 33.851562 C 69.5625 33.851562 68.898438 33.917969 68.242188 34.046875 C 67.585938 34.179688 66.945312 34.371094 66.328125 34.628906 C 65.707031 34.882812 65.121094 35.199219 64.5625 35.570312 C 64.007812 35.941406 63.492188 36.367188 63.019531 36.839844 C 62.542969 37.3125 62.121094 37.828125 61.75 38.386719 C 61.378906 38.941406 61.0625 39.53125 60.808594 40.148438 C 60.550781 40.765625 60.355469 41.40625 60.226562 42.0625 C 60.097656 42.71875 60.03125 43.382812 60.03125 44.050781 C 60.03125 44.722656 60.097656 45.386719 60.226562 46.042969 C 60.355469 46.699219 60.550781 47.335938 60.808594 47.957031 C 61.0625 48.574219 61.378906 49.164062 61.75 49.71875 C 62.121094 50.277344 62.542969 50.792969 63.019531 51.265625 C 63.492188 51.738281 64.007812 52.160156 64.5625 52.535156 C 65.121094 52.90625 65.710938 53.21875 66.328125 53.476562 C 66.945312 53.734375 67.585938 53.925781 68.242188 54.058594 C 68.898438 54.1875 69.5625 54.253906 70.230469 54.253906 Z M 70.230469 54.253906 "/></g><g clip-rule="nonzero" clip-path="url(#147f0a3e80)"><path style=" stroke:none;fill-rule:nonzero;fill:#ff66c4;fill-opacity:1;" d="M 79.4375 60.984375 L 61.023438 60.984375 C 60.515625 60.984375 60.011719 61.035156 59.511719 61.136719 C 59.011719 61.234375 58.523438 61.382812 58.054688 61.578125 C 57.582031 61.769531 57.136719 62.011719 56.714844 62.292969 C 56.289062 62.578125 55.898438 62.898438 55.539062 63.257812 C 55.175781 63.617188 54.855469 64.011719 54.574219 64.433594 C 54.289062 64.859375 54.050781 65.304688 53.855469 65.777344 C 53.660156 66.246094 53.511719 66.730469 53.414062 67.230469 C 53.3125 67.730469 53.265625 68.234375 53.265625 68.746094 L 53.265625 96.097656 C 53.265625 96.582031 53.3125 97.0625 53.402344 97.539062 C 53.492188 98.015625 53.628906 98.480469 53.808594 98.929688 C 53.984375 99.382812 54.203125 99.8125 54.464844 100.222656 C 54.722656 100.628906 55.015625 101.011719 55.347656 101.367188 C 55.679688 101.71875 56.039062 102.039062 56.429688 102.328125 C 56.824219 102.613281 57.238281 102.859375 57.675781 103.070312 C 58.113281 103.277344 58.566406 103.441406 59.035156 103.566406 C 59.503906 103.6875 59.980469 103.769531 60.464844 103.800781 L 60.464844 127.195312 C 60.464844 127.605469 60.503906 128.011719 60.582031 128.414062 C 60.664062 128.816406 60.78125 129.207031 60.9375 129.585938 C 61.09375 129.964844 61.289062 130.324219 61.515625 130.664062 C 61.742188 131.007812 62.003906 131.320312 62.292969 131.613281 C 62.582031 131.902344 62.898438 132.160156 63.238281 132.386719 C 63.578125 132.617188 63.9375 132.808594 64.316406 132.964844 C 64.695312 133.121094 65.085938 133.242188 65.488281 133.320312 C 65.890625 133.402344 66.296875 133.441406 66.707031 133.441406 L 73.757812 133.441406 C 74.167969 133.441406 74.574219 133.402344 74.976562 133.320312 C 75.378906 133.242188 75.769531 133.121094 76.148438 132.964844 C 76.527344 132.808594 76.886719 132.617188 77.226562 132.390625 C 77.566406 132.160156 77.882812 131.902344 78.171875 131.613281 C 78.464844 131.324219 78.722656 131.007812 78.949219 130.667969 C 79.179688 130.324219 79.371094 129.964844 79.527344 129.585938 C 79.683594 129.207031 79.800781 128.816406 79.882812 128.414062 C 79.960938 128.011719 80.003906 127.605469 80.003906 127.195312 L 80.003906 103.800781 C 80.484375 103.765625 80.960938 103.6875 81.429688 103.566406 C 81.898438 103.441406 82.351562 103.277344 82.789062 103.070312 C 83.226562 102.859375 83.640625 102.613281 84.035156 102.328125 C 84.425781 102.039062 84.785156 101.71875 85.117188 101.367188 C 85.449219 101.011719 85.742188 100.628906 86.003906 100.21875 C 86.261719 99.8125 86.480469 99.378906 86.660156 98.929688 C 86.835938 98.480469 86.972656 98.015625 87.0625 97.539062 C 87.152344 97.0625 87.199219 96.582031 87.199219 96.097656 L 87.199219 68.746094 C 87.199219 68.238281 87.152344 67.730469 87.050781 67.234375 C 86.953125 66.734375 86.804688 66.246094 86.609375 65.777344 C 86.414062 65.304688 86.175781 64.859375 85.894531 64.433594 C 85.609375 64.011719 85.289062 63.617188 84.925781 63.257812 C 84.566406 62.898438 84.175781 62.574219 83.75 62.292969 C 83.328125 62.011719 82.878906 61.769531 82.410156 61.574219 C 81.9375 61.382812 81.453125 61.234375 80.953125 61.132812 C 80.453125 61.035156 79.949219 60.984375 79.4375 60.984375 Z M 79.4375 60.984375 "/></g><g style="fill:#000000;fill-opacity:1;"><g transform="translate(101.253823, 156.588633)"><path style="stroke:none" d=""/></g></g><g style="fill:#000000;fill-opacity:1;"><g transform="translate(109.147783, 156.588633)"><path style="stroke:none" d="M 7.5625 -11.921875 L 4.671875 -11.921875 L 4.671875 0 L 2.375 0 L 2.375 -11.921875 L 0.578125 -11.921875 L 0.578125 -13.8125 L 2.375 -13.8125 L 2.375 -14.796875 C 2.375 -16.347656 2.769531 -17.476562 3.5625 -18.1875 C 4.363281 -18.90625 5.648438 -19.265625 7.421875 -19.265625 L 7.421875 -17.34375 C 6.410156 -17.34375 5.695312 -17.144531 5.28125 -16.75 C 4.875 -16.363281 4.671875 -15.710938 4.671875 -14.796875 L 4.671875 -13.8125 L 7.5625 -13.8125 Z M 7.5625 -11.921875 "/></g></g><g style="fill:#000000;fill-opacity:1;"><g transform="translate(118.602425, 156.588633)"><path style="stroke:none" d="M 7.96875 0.234375 C 6.675781 0.234375 5.503906 -0.0546875 4.453125 -0.640625 C 3.398438 -1.234375 2.570312 -2.070312 1.96875 -3.15625 C 1.375 -4.25 1.078125 -5.507812 1.078125 -6.9375 C 1.078125 -8.34375 1.382812 -9.585938 2 -10.671875 C 2.613281 -11.765625 3.453125 -12.597656 4.515625 -13.171875 C 5.578125 -13.753906 6.757812 -14.046875 8.0625 -14.046875 C 9.375 -14.046875 10.5625 -13.753906 11.625 -13.171875 C 12.6875 -12.597656 13.523438 -11.769531 14.140625 -10.6875 C 14.753906 -9.613281 15.0625 -8.363281 15.0625 -6.9375 C 15.0625 -5.507812 14.742188 -4.25 14.109375 -3.15625 C 13.484375 -2.070312 12.628906 -1.234375 11.546875 -0.640625 C 10.472656 -0.0546875 9.28125 0.234375 7.96875 0.234375 Z M 7.96875 -1.796875 C 8.789062 -1.796875 9.5625 -1.988281 10.28125 -2.375 C 11.007812 -2.757812 11.59375 -3.335938 12.03125 -4.109375 C 12.476562 -4.878906 12.703125 -5.820312 12.703125 -6.9375 C 12.703125 -8.039062 12.484375 -8.976562 12.046875 -9.75 C 11.617188 -10.53125 11.050781 -11.109375 10.34375 -11.484375 C 9.632812 -11.859375 8.867188 -12.046875 8.046875 -12.046875 C 7.203125 -12.046875 6.429688 -11.859375 5.734375 -11.484375 C 5.035156 -11.109375 4.476562 -10.53125 4.0625 -9.75 C 3.644531 -8.976562 3.4375 -8.039062 3.4375 -6.9375 C 3.4375 -5.8125 3.640625 -4.859375 4.046875 -4.078125 C 4.460938 -3.304688 5.015625 -2.734375 5.703125 -2.359375 C 6.390625 -1.984375 7.144531 -1.796875 7.96875 -1.796875 Z M 7.96875 -1.796875 "/></g></g><g style="fill:#000000;fill-opacity:1;"><g transform="translate(135.89753, 156.588633)"><path style="stroke:none" d="M 4.234375 -11.578125 C 4.640625 -12.367188 5.21875 -12.984375 5.96875 -13.421875 C 6.71875 -13.859375 7.628906 -14.078125 8.703125 -14.078125 L 8.703125 -11.703125 L 8.09375 -11.703125 C 5.519531 -11.703125 4.234375 -10.304688 4.234375 -7.515625 L 4.234375 0 L 1.9375 0 L 1.9375 -13.8125 L 4.234375 -13.8125 Z M 4.234375 -11.578125 "/></g></g><g style="fill:#000000;fill-opacity:1;"><g transform="translate(146.461428, 156.588633)"><path style="stroke:none" d=""/></g></g><g style="fill:#000000;fill-opacity:1;"><g transform="translate(154.353038, 156.588633)"><path style="stroke:none" d="M 8.796875 -14.078125 C 9.835938 -14.078125 10.78125 -13.851562 11.625 -13.40625 C 12.46875 -12.957031 13.128906 -12.285156 13.609375 -11.390625 C 14.085938 -10.503906 14.328125 -9.421875 14.328125 -8.140625 L 14.328125 0 L 12.046875 0 L 12.046875 -7.8125 C 12.046875 -9.195312 11.703125 -10.253906 11.015625 -10.984375 C 10.328125 -11.710938 9.390625 -12.078125 8.203125 -12.078125 C 6.984375 -12.078125 6.015625 -11.695312 5.296875 -10.9375 C 4.585938 -10.1875 4.234375 -9.085938 4.234375 -7.640625 L 4.234375 0 L 1.9375 0 L 1.9375 -18.65625 L 4.234375 -18.65625 L 4.234375 -11.859375 C 4.691406 -12.554688 5.316406 -13.097656 6.109375 -13.484375 C 6.910156 -13.878906 7.804688 -14.078125 8.796875 -14.078125 Z M 8.796875 -14.078125 "/></g></g><g style="fill:#000000;fill-opacity:1;"><g transform="translate(171.648142, 156.588633)"><path style="stroke:none" d="M 14.546875 -7.4375 C 14.546875 -7 14.519531 -6.535156 14.46875 -6.046875 L 3.4375 -6.046875 C 3.519531 -4.691406 3.984375 -3.628906 4.828125 -2.859375 C 5.679688 -2.097656 6.710938 -1.71875 7.921875 -1.71875 C 8.910156 -1.71875 9.738281 -1.945312 10.40625 -2.40625 C 11.070312 -2.875 11.535156 -3.492188 11.796875 -4.265625 L 14.28125 -4.265625 C 13.90625 -2.929688 13.160156 -1.847656 12.046875 -1.015625 C 10.941406 -0.179688 9.566406 0.234375 7.921875 0.234375 C 6.609375 0.234375 5.429688 -0.0546875 4.390625 -0.640625 C 3.359375 -1.234375 2.546875 -2.070312 1.953125 -3.15625 C 1.367188 -4.25 1.078125 -5.507812 1.078125 -6.9375 C 1.078125 -8.363281 1.363281 -9.613281 1.9375 -10.6875 C 2.507812 -11.769531 3.3125 -12.597656 4.34375 -13.171875 C 5.382812 -13.753906 6.578125 -14.046875 7.921875 -14.046875 C 9.234375 -14.046875 10.390625 -13.757812 11.390625 -13.1875 C 12.398438 -12.613281 13.175781 -11.828125 13.71875 -10.828125 C 14.269531 -9.828125 14.546875 -8.695312 14.546875 -7.4375 Z M 12.1875 -7.921875 C 12.1875 -8.796875 11.988281 -9.546875 11.59375 -10.171875 C 11.207031 -10.804688 10.679688 -11.285156 10.015625 -11.609375 C 9.359375 -11.941406 8.625 -12.109375 7.8125 -12.109375 C 6.65625 -12.109375 5.664062 -11.738281 4.84375 -11 C 4.03125 -10.257812 3.566406 -9.234375 3.453125 -7.921875 Z M 12.1875 -7.921875 "/></g></g><g style="fill:#000000;fill-opacity:1;"><g transform="translate(188.439033, 156.588633)"><path style="stroke:none" d="M 1.078125 -6.953125 C 1.078125 -8.367188 1.363281 -9.609375 1.9375 -10.671875 C 2.507812 -11.742188 3.296875 -12.570312 4.296875 -13.15625 C 5.296875 -13.75 6.410156 -14.046875 7.640625 -14.046875 C 8.847656 -14.046875 9.894531 -13.785156 10.78125 -13.265625 C 11.675781 -12.742188 12.34375 -12.085938 12.78125 -11.296875 L 12.78125 -13.8125 L 15.109375 -13.8125 L 15.109375 0 L 12.78125 0 L 12.78125 -2.578125 C 12.332031 -1.765625 11.65625 -1.09375 10.75 -0.5625 C 9.851562 -0.03125 8.804688 0.234375 7.609375 0.234375 C 6.390625 0.234375 5.28125 -0.0664062 4.28125 -0.671875 C 3.289062 -1.285156 2.507812 -2.140625 1.9375 -3.234375 C 1.363281 -4.328125 1.078125 -5.566406 1.078125 -6.953125 Z M 12.78125 -6.9375 C 12.78125 -7.976562 12.570312 -8.882812 12.15625 -9.65625 C 11.738281 -10.425781 11.171875 -11.015625 10.453125 -11.421875 C 9.734375 -11.835938 8.945312 -12.046875 8.09375 -12.046875 C 7.238281 -12.046875 6.457031 -11.84375 5.75 -11.4375 C 5.039062 -11.039062 4.476562 -10.457031 4.0625 -9.6875 C 3.644531 -8.914062 3.4375 -8.003906 3.4375 -6.953125 C 3.4375 -5.898438 3.644531 -4.984375 4.0625 -4.203125 C 4.476562 -3.421875 5.039062 -2.820312 5.75 -2.40625 C 6.457031 -2 7.238281 -1.796875 8.09375 -1.796875 C 8.945312 -1.796875 9.734375 -2 10.453125 -2.40625 C 11.171875 -2.820312 11.738281 -3.421875 12.15625 -4.203125 C 12.570312 -4.984375 12.78125 -5.894531 12.78125 -6.9375 Z M 12.78125 -6.9375 "/></g></g><g style="fill:#000000;fill-opacity:1;"><g transform="translate(206.641712, 156.588633)"><path style="stroke:none" d="M 4.234375 -18.65625 L 4.234375 0 L 1.9375 0 L 1.9375 -18.65625 Z M 4.234375 -18.65625 "/></g></g><g style="fill:#000000;fill-opacity:1;"><g transform="translate(214.003902, 156.588633)"><path style="stroke:none" d="M 4.734375 -11.921875 L 4.734375 -3.78125 C 4.734375 -3.113281 4.875 -2.640625 5.15625 -2.359375 C 5.445312 -2.078125 5.945312 -1.9375 6.65625 -1.9375 L 8.34375 -1.9375 L 8.34375 0 L 6.28125 0 C 5 0 4.039062 -0.289062 3.40625 -0.875 C 2.769531 -1.46875 2.453125 -2.4375 2.453125 -3.78125 L 2.453125 -11.921875 L 0.65625 -11.921875 L 0.65625 -13.8125 L 2.453125 -13.8125 L 2.453125 -17.296875 L 4.734375 -17.296875 L 4.734375 -13.8125 L 8.34375 -13.8125 L 8.34375 -11.921875 Z M 4.734375 -11.921875 "/></g></g><g style="fill:#000000;fill-opacity:1;"><g transform="translate(224.340912, 156.588633)"><path style="stroke:none" d="M 8.796875 -14.078125 C 9.835938 -14.078125 10.78125 -13.851562 11.625 -13.40625 C 12.46875 -12.957031 13.128906 -12.285156 13.609375 -11.390625 C 14.085938 -10.503906 14.328125 -9.421875 14.328125 -8.140625 L 14.328125 0 L 12.046875 0 L 12.046875 -7.8125 C 12.046875 -9.195312 11.703125 -10.253906 11.015625 -10.984375 C 10.328125 -11.710938 9.390625 -12.078125 8.203125 -12.078125 C 6.984375 -12.078125 6.015625 -11.695312 5.296875 -10.9375 C 4.585938 -10.1875 4.234375 -9.085938 4.234375 -7.640625 L 4.234375 0 L 1.9375 0 L 1.9375 -18.65625 L 4.234375 -18.65625 L 4.234375 -11.859375 C 4.691406 -12.554688 5.316406 -13.097656 6.109375 -13.484375 C 6.910156 -13.878906 7.804688 -14.078125 8.796875 -14.078125 Z M 8.796875 -14.078125 "/></g></g><g style="fill:#000000;fill-opacity:1;"><g transform="translate(241.636016, 156.588633)"><path style="stroke:none" d="M 1.078125 -6.9375 C 1.078125 -8.363281 1.363281 -9.609375 1.9375 -10.671875 C 2.507812 -11.742188 3.300781 -12.570312 4.3125 -13.15625 C 5.332031 -13.75 6.5 -14.046875 7.8125 -14.046875 C 9.507812 -14.046875 10.910156 -13.632812 12.015625 -12.8125 C 13.117188 -11.988281 13.847656 -10.84375 14.203125 -9.375 L 11.734375 -9.375 C 11.492188 -10.21875 11.03125 -10.882812 10.34375 -11.375 C 9.664062 -11.863281 8.820312 -12.109375 7.8125 -12.109375 C 6.5 -12.109375 5.441406 -11.65625 4.640625 -10.75 C 3.835938 -9.851562 3.4375 -8.582031 3.4375 -6.9375 C 3.4375 -5.269531 3.835938 -3.984375 4.640625 -3.078125 C 5.441406 -2.171875 6.5 -1.71875 7.8125 -1.71875 C 8.820312 -1.71875 9.660156 -1.953125 10.328125 -2.421875 C 11.003906 -2.890625 11.472656 -3.5625 11.734375 -4.4375 L 14.203125 -4.4375 C 13.828125 -3.019531 13.082031 -1.882812 11.96875 -1.03125 C 10.863281 -0.1875 9.476562 0.234375 7.8125 0.234375 C 6.5 0.234375 5.332031 -0.0546875 4.3125 -0.640625 C 3.300781 -1.234375 2.507812 -2.066406 1.9375 -3.140625 C 1.363281 -4.222656 1.078125 -5.488281 1.078125 -6.9375 Z M 1.078125 -6.9375 "/></g></g><g style="fill:#000000;fill-opacity:1;"><g transform="translate(258.099166, 156.588633)"><path style="stroke:none" d="M 1.078125 -6.953125 C 1.078125 -8.367188 1.363281 -9.609375 1.9375 -10.671875 C 2.507812 -11.742188 3.296875 -12.570312 4.296875 -13.15625 C 5.296875 -13.75 6.410156 -14.046875 7.640625 -14.046875 C 8.847656 -14.046875 9.894531 -13.785156 10.78125 -13.265625 C 11.675781 -12.742188 12.34375 -12.085938 12.78125 -11.296875 L 12.78125 -13.8125 L 15.109375 -13.8125 L 15.109375 0 L 12.78125 0 L 12.78125 -2.578125 C 12.332031 -1.765625 11.65625 -1.09375 10.75 -0.5625 C 9.851562 -0.03125 8.804688 0.234375 7.609375 0.234375 C 6.390625 0.234375 5.28125 -0.0664062 4.28125 -0.671875 C 3.289062 -1.285156 2.507812 -2.140625 1.9375 -3.234375 C 1.363281 -4.328125 1.078125 -5.566406 1.078125 -6.953125 Z M 12.78125 -6.9375 C 12.78125 -7.976562 12.570312 -8.882812 12.15625 -9.65625 C 11.738281 -10.425781 11.171875 -11.015625 10.453125 -11.421875 C 9.734375 -11.835938 8.945312 -12.046875 8.09375 -12.046875 C 7.238281 -12.046875 6.457031 -11.84375 5.75 -11.4375 C 5.039062 -11.039062 4.476562 -10.457031 4.0625 -9.6875 C 3.644531 -8.914062 3.4375 -8.003906 3.4375 -6.953125 C 3.4375 -5.898438 3.644531 -4.984375 4.0625 -4.203125 C 4.476562 -3.421875 5.039062 -2.820312 5.75 -2.40625 C 6.457031 -2 7.238281 -1.796875 8.09375 -1.796875 C 8.945312 -1.796875 9.734375 -2 10.453125 -2.40625 C 11.171875 -2.820312 11.738281 -3.421875 12.15625 -4.203125 C 12.570312 -4.984375 12.78125 -5.894531 12.78125 -6.9375 Z M 12.78125 -6.9375 "/></g></g><g style="fill:#000000;fill-opacity:1;"><g transform="translate(276.301846, 156.588633)"><path style="stroke:none" d="M 4.234375 -11.578125 C 4.640625 -12.367188 5.21875 -12.984375 5.96875 -13.421875 C 6.71875 -13.859375 7.628906 -14.078125 8.703125 -14.078125 L 8.703125 -11.703125 L 8.09375 -11.703125 C 5.519531 -11.703125 4.234375 -10.304688 4.234375 -7.515625 L 4.234375 0 L 1.9375 0 L 1.9375 -13.8125 L 4.234375 -13.8125 Z M 4.234375 -11.578125 "/></g></g><g style="fill:#000000;fill-opacity:1;"><g transform="translate(286.865744, 156.588633)"><path style="stroke:none" d="M 14.546875 -7.4375 C 14.546875 -7 14.519531 -6.535156 14.46875 -6.046875 L 3.4375 -6.046875 C 3.519531 -4.691406 3.984375 -3.628906 4.828125 -2.859375 C 5.679688 -2.097656 6.710938 -1.71875 7.921875 -1.71875 C 8.910156 -1.71875 9.738281 -1.945312 10.40625 -2.40625 C 11.070312 -2.875 11.535156 -3.492188 11.796875 -4.265625 L 14.28125 -4.265625 C 13.90625 -2.929688 13.160156 -1.847656 12.046875 -1.015625 C 10.941406 -0.179688 9.566406 0.234375 7.921875 0.234375 C 6.609375 0.234375 5.429688 -0.0546875 4.390625 -0.640625 C 3.359375 -1.234375 2.546875 -2.070312 1.953125 -3.15625 C 1.367188 -4.25 1.078125 -5.507812 1.078125 -6.9375 C 1.078125 -8.363281 1.363281 -9.613281 1.9375 -10.6875 C 2.507812 -11.769531 3.3125 -12.597656 4.34375 -13.171875 C 5.382812 -13.753906 6.578125 -14.046875 7.921875 -14.046875 C 9.234375 -14.046875 10.390625 -13.757812 11.390625 -13.1875 C 12.398438 -12.613281 13.175781 -11.828125 13.71875 -10.828125 C 14.269531 -9.828125 14.546875 -8.695312 14.546875 -7.4375 Z M 12.1875 -7.921875 C 12.1875 -8.796875 11.988281 -9.546875 11.59375 -10.171875 C 11.207031 -10.804688 10.679688 -11.285156 10.015625 -11.609375 C 9.359375 -11.941406 8.625 -12.109375 7.8125 -12.109375 C 6.65625 -12.109375 5.664062 -11.738281 4.84375 -11 C 4.03125 -10.257812 3.566406 -9.234375 3.453125 -7.921875 Z M 12.1875 -7.921875 "/></g></g></g></g></g></svg>